<svg width="207" height="51" viewBox="0 0 207 51" fill="none" xmlns="http://www.w3.org/2000/svg">
<path d="M79.856 41.032C79.3867 41.032 78.992 40.8827 78.672 40.584C78.3733 40.264 78.224 39.8693 78.224 39.4V30.248C78.224 28.904 77.8933 27.912 77.232 27.272C76.5707 26.6107 75.7067 26.28 74.64 26.28C73.5307 26.28 72.6133 26.664 71.888 27.432C71.184 28.2 70.832 29.1813 70.832 30.376H68.176C68.176 28.9893 68.4747 27.7733 69.072 26.728C69.6693 25.6613 70.5013 24.8293 71.568 24.232C72.656 23.6347 73.8933 23.336 75.28 23.336C76.496 23.336 77.5733 23.6027 78.512 24.136C79.4507 24.6693 80.176 25.4587 80.688 26.504C81.2213 27.528 81.488 28.776 81.488 30.248V39.4C81.488 39.8693 81.3387 40.264 81.04 40.584C80.7413 40.8827 80.3467 41.032 79.856 41.032ZM58.512 41.032C58.0427 41.032 57.648 40.8827 57.328 40.584C57.0293 40.264 56.88 39.8693 56.88 39.4V25.16C56.88 24.6693 57.0293 24.2747 57.328 23.976C57.648 23.6773 58.0427 23.528 58.512 23.528C59.0027 23.528 59.3973 23.6773 59.696 23.976C59.9947 24.2747 60.144 24.6693 60.144 25.16V39.4C60.144 39.8693 59.9947 40.264 59.696 40.584C59.3973 40.8827 59.0027 41.032 58.512 41.032ZM69.2 41.032C68.7307 41.032 68.336 40.8827 68.016 40.584C67.7173 40.264 67.568 39.8693 67.568 39.4V30.248C67.568 28.904 67.2373 27.912 66.576 27.272C65.9147 26.6107 65.0507 26.28 63.984 26.28C62.8747 26.28 61.9573 26.664 61.232 27.432C60.5067 28.2 60.144 29.1813 60.144 30.376H58.128C58.128 28.9893 58.4053 27.7733 58.96 26.728C59.5147 25.6613 60.2827 24.8293 61.264 24.232C62.2453 23.6347 63.3653 23.336 64.624 23.336C65.84 23.336 66.9173 23.6027 67.856 24.136C68.7947 24.6693 69.52 25.4587 70.032 26.504C70.5653 27.528 70.832 28.776 70.832 30.248V39.4C70.832 39.8693 70.6827 40.264 70.384 40.584C70.0853 40.8827 69.6907 41.032 69.2 41.032ZM94.2073 41.128C92.6499 41.128 91.2526 40.744 90.0153 39.976C88.7779 39.1867 87.7966 38.1307 87.0713 36.808C86.3673 35.464 86.0153 33.9493 86.0153 32.264C86.0153 30.5787 86.3993 29.064 87.1673 27.72C87.9566 26.376 89.0126 25.32 90.3353 24.552C91.6793 23.7627 93.1833 23.368 94.8473 23.368C96.5113 23.368 98.0046 23.7627 99.3273 24.552C100.65 25.32 101.695 26.376 102.463 27.72C103.253 29.064 103.647 30.5787 103.647 32.264H102.399C102.399 33.9493 102.037 35.464 101.311 36.808C100.607 38.1307 99.6366 39.1867 98.3993 39.976C97.1619 40.744 95.7646 41.128 94.2073 41.128ZM94.8473 38.248C95.9353 38.248 96.9059 37.992 97.7593 37.48C98.6126 36.9467 99.2846 36.232 99.7753 35.336C100.266 34.4187 100.511 33.3947 100.511 32.264C100.511 31.112 100.266 30.088 99.7753 29.192C99.2846 28.2747 98.6126 27.56 97.7593 27.048C96.9059 26.5147 95.9353 26.248 94.8473 26.248C93.7806 26.248 92.8099 26.5147 91.9353 27.048C91.0819 27.56 90.3993 28.2747 89.8873 29.192C89.3966 30.088 89.1513 31.112 89.1513 32.264C89.1513 33.3947 89.3966 34.4187 89.8873 35.336C90.3993 36.232 91.0819 36.9467 91.9353 37.48C92.8099 37.992 93.7806 38.248 94.8473 38.248ZM102.015 41.032C101.546 41.032 101.151 40.8827 100.831 40.584C100.533 40.264 100.383 39.8693 100.383 39.4V34.504L100.991 31.112L103.647 32.264V39.4C103.647 39.8693 103.487 40.264 103.167 40.584C102.869 40.8827 102.485 41.032 102.015 41.032ZM123.289 41.032C122.82 41.032 122.425 40.8827 122.105 40.584C121.806 40.264 121.657 39.8693 121.657 39.4V31.528C121.657 30.312 121.433 29.32 120.985 28.552C120.537 27.784 119.929 27.2187 119.161 26.856C118.414 26.472 117.55 26.28 116.569 26.28C115.673 26.28 114.862 26.4613 114.137 26.824C113.412 27.1867 112.836 27.6773 112.409 28.296C111.982 28.8933 111.769 29.5867 111.769 30.376H109.753C109.753 29.032 110.073 27.8373 110.713 26.792C111.374 25.7253 112.27 24.8827 113.401 24.264C114.532 23.6453 115.801 23.336 117.209 23.336C118.681 23.336 119.993 23.656 121.145 24.296C122.318 24.9147 123.236 25.832 123.897 27.048C124.58 28.264 124.921 29.7573 124.921 31.528V39.4C124.921 39.8693 124.761 40.264 124.441 40.584C124.142 40.8827 123.758 41.032 123.289 41.032ZM110.137 41.032C109.668 41.032 109.273 40.8827 108.953 40.584C108.654 40.264 108.505 39.8693 108.505 39.4V25.128C108.505 24.6373 108.654 24.2427 108.953 23.944C109.273 23.6453 109.668 23.496 110.137 23.496C110.628 23.496 111.022 23.6453 111.321 23.944C111.62 24.2427 111.769 24.6373 111.769 25.128V39.4C111.769 39.8693 111.62 40.264 111.321 40.584C111.022 40.8827 110.628 41.032 110.137 41.032ZM137.614 41.128C136.056 41.128 134.659 40.744 133.422 39.976C132.184 39.1867 131.203 38.1307 130.478 36.808C129.774 35.464 129.422 33.9493 129.422 32.264C129.422 30.5787 129.806 29.064 130.574 27.72C131.363 26.376 132.419 25.32 133.742 24.552C135.086 23.7627 136.59 23.368 138.254 23.368C139.918 23.368 141.411 23.7627 142.734 24.552C144.056 25.32 145.102 26.376 145.87 27.72C146.659 29.064 147.054 30.5787 147.054 32.264H145.806C145.806 33.9493 145.443 35.464 144.718 36.808C144.014 38.1307 143.043 39.1867 141.806 39.976C140.568 40.744 139.171 41.128 137.614 41.128ZM138.254 38.248C139.342 38.248 140.312 37.992 141.166 37.48C142.019 36.9467 142.691 36.232 143.182 35.336C143.672 34.4187 143.918 33.3947 143.918 32.264C143.918 31.112 143.672 30.088 143.182 29.192C142.691 28.2747 142.019 27.56 141.166 27.048C140.312 26.5147 139.342 26.248 138.254 26.248C137.187 26.248 136.216 26.5147 135.342 27.048C134.488 27.56 133.806 28.2747 133.294 29.192C132.803 30.088 132.558 31.112 132.558 32.264C132.558 33.3947 132.803 34.4187 133.294 35.336C133.806 36.232 134.488 36.9467 135.342 37.48C136.216 37.992 137.187 38.248 138.254 38.248ZM145.422 41.032C144.952 41.032 144.558 40.8827 144.238 40.584C143.939 40.264 143.79 39.8693 143.79 39.4V34.504L144.398 31.112L147.054 32.264V39.4C147.054 39.8693 146.894 40.264 146.574 40.584C146.275 40.8827 145.891 41.032 145.422 41.032ZM159.207 41.128C157.607 41.128 156.189 40.7547 154.951 40.008C153.735 39.24 152.775 38.1947 152.071 36.872C151.367 35.528 151.015 33.992 151.015 32.264C151.015 30.5147 151.389 28.9787 152.135 27.656C152.903 26.312 153.949 25.2667 155.271 24.52C156.594 23.752 158.119 23.368 159.847 23.368C161.554 23.368 163.069 23.752 164.391 24.52C165.714 25.2667 166.749 26.312 167.495 27.656C168.263 28.9787 168.647 30.5147 168.647 32.264H166.759C166.759 33.992 166.429 35.528 165.767 36.872C165.127 38.1947 164.242 39.24 163.111 40.008C161.981 40.7547 160.679 41.128 159.207 41.128ZM159.783 48.264C158.269 48.264 156.85 47.9653 155.527 47.368C154.205 46.7707 153.085 45.896 152.167 44.744C151.89 44.3813 151.783 44.008 151.847 43.624C151.933 43.24 152.146 42.9307 152.487 42.696C152.871 42.44 153.266 42.3547 153.671 42.44C154.098 42.5253 154.439 42.7387 154.695 43.08C155.271 43.8053 155.997 44.3707 156.871 44.776C157.746 45.1813 158.738 45.384 159.847 45.384C160.871 45.384 161.81 45.1387 162.663 44.648C163.538 44.1573 164.231 43.432 164.743 42.472C165.255 41.512 165.511 40.3387 165.511 38.952V34.408L166.567 31.592L168.647 32.264V39.176C168.647 40.8613 168.274 42.3867 167.527 43.752C166.781 45.1387 165.735 46.2373 164.391 47.048C163.069 47.8587 161.533 48.264 159.783 48.264ZM159.847 38.248C160.957 38.248 161.938 37.992 162.791 37.48C163.645 36.968 164.306 36.264 164.775 35.368C165.266 34.472 165.511 33.4373 165.511 32.264C165.511 31.0907 165.266 30.056 164.775 29.16C164.306 28.2427 163.645 27.528 162.791 27.016C161.938 26.504 160.957 26.248 159.847 26.248C158.738 26.248 157.757 26.504 156.903 27.016C156.05 27.528 155.378 28.2427 154.887 29.16C154.397 30.056 154.151 31.0907 154.151 32.264C154.151 33.4373 154.397 34.472 154.887 35.368C155.378 36.264 156.05 36.968 156.903 37.48C157.757 37.992 158.738 38.248 159.847 38.248ZM181.729 41.128C179.958 41.128 178.38 40.7547 176.993 40.008C175.628 39.24 174.55 38.1947 173.761 36.872C172.993 35.528 172.609 33.992 172.609 32.264C172.609 30.5147 172.972 28.9787 173.697 27.656C174.444 26.312 175.468 25.2667 176.769 24.52C178.07 23.752 179.564 23.368 181.249 23.368C182.913 23.368 184.342 23.7413 185.537 24.488C186.732 25.2133 187.638 26.2267 188.257 27.528C188.897 28.808 189.217 30.2907 189.217 31.976C189.217 32.3813 189.078 32.7227 188.801 33C188.524 33.256 188.172 33.384 187.745 33.384H174.849V30.824H187.649L186.337 31.72C186.316 30.6533 186.102 29.704 185.697 28.872C185.292 28.0187 184.716 27.3467 183.969 26.856C183.222 26.3653 182.316 26.12 181.249 26.12C180.033 26.12 178.988 26.3867 178.113 26.92C177.26 27.4533 176.609 28.1893 176.161 29.128C175.713 30.0453 175.489 31.0907 175.489 32.264C175.489 33.4373 175.756 34.4827 176.289 35.4C176.822 36.3173 177.558 37.0427 178.497 37.576C179.436 38.1093 180.513 38.376 181.729 38.376C182.39 38.376 183.062 38.2587 183.745 38.024C184.449 37.768 185.014 37.48 185.441 37.16C185.761 36.9253 186.102 36.808 186.465 36.808C186.849 36.7867 187.18 36.8933 187.457 37.128C187.82 37.448 188.012 37.8 188.033 38.184C188.054 38.568 187.884 38.8987 187.521 39.176C186.796 39.752 185.889 40.2213 184.801 40.584C183.734 40.9467 182.71 41.128 181.729 41.128ZM194.948 30.056C194.948 28.776 195.257 27.6347 195.876 26.632C196.516 25.608 197.369 24.7973 198.436 24.2C199.503 23.6027 200.676 23.304 201.956 23.304C203.236 23.304 204.185 23.5173 204.804 23.944C205.444 24.3493 205.689 24.84 205.54 25.416C205.476 25.7147 205.348 25.9493 205.156 26.12C204.985 26.2693 204.783 26.3653 204.548 26.408C204.313 26.4507 204.057 26.44 203.78 26.376C202.415 26.0987 201.188 26.0773 200.1 26.312C199.012 26.5467 198.148 26.984 197.508 27.624C196.889 28.264 196.58 29.0747 196.58 30.056H194.948ZM194.98 41C194.468 41 194.073 40.872 193.796 40.616C193.519 40.3387 193.38 39.9333 193.38 39.4V25.096C193.38 24.584 193.519 24.1893 193.796 23.912C194.073 23.6347 194.468 23.496 194.98 23.496C195.513 23.496 195.908 23.6347 196.164 23.912C196.441 24.168 196.58 24.5627 196.58 25.096V39.4C196.58 39.912 196.441 40.3067 196.164 40.584C195.908 40.8613 195.513 41 194.98 41Z" fill="black"/>
<rect width="51" height="51" fill="#3B82F6"/>
<path d="M11.2812 12.2695H16.75V35.7852H24.7188V41H11.2812V12.2695ZM26.0664 12.2695H41.9453V17.6602H36.7109V41H31.1641V17.6602H26.0664V12.2695Z" fill="white"/>
</svg>
